<svg xmlns="http://www.w3.org/2000/svg" version="1.0" viewBox="0 0 375 286"><defs><clipPath id="a"><path d="M 0 11 L 176 11 L 176 175.503906 L 0 175.503906 Z M 0 11"/></clipPath><clipPath id="b"><path d="M 8 0.00390625 L 187.496094 0.00390625 L 187.496094 168 L 8 168 Z M 8 0.00390625"/></clipPath><clipPath id="c"><path d="M 199 110.511719 L 374.996094 110.511719 L 374.996094 275 L 199 275 Z M 199 110.511719"/></clipPath><clipPath id="d"><path d="M 187.496094 118 L 367 118 L 367 286 L 187.496094 286 Z M 187.496094 118"/></clipPath></defs><g clip-path="url(#a)"><path fill="#161514" d="M 47.910156 93.328125 L 175.691406 128.273438 L 175.691406 175.507812 L 0.175781 116.460938 L 0.175781 70.1875 L 175.691406 11.625 L 175.691406 58.5 L 47.910156 93.328125"/></g><g clip-path="url(#b)"><path fill="#6E6B6D" d="M 65.609375 41.292969 C 65.609375 40.535156 66.089844 39.828125 66.855469 39.570312 L 69.269531 38.761719 C 70.222656 38.445312 71.253906 38.960938 71.570312 39.910156 C 71.886719 40.867188 71.375 41.890625 70.421875 42.210938 L 68.003906 43.019531 C 67.050781 43.335938 66.019531 42.816406 65.703125 41.867188 C 65.644531 41.675781 65.609375 41.484375 65.609375 41.292969 Z M 8.050781 106.773438 L 8.050781 60.5 C 8.050781 59.71875 8.546875 59.027344 9.289062 58.777344 L 49.503906 45.359375 C 50.457031 45.042969 51.484375 45.554688 51.800781 46.507812 C 52.125 47.464844 51.605469 48.488281 50.65625 48.808594 L 11.6875 61.808594 L 11.6875 105.46875 L 183.5625 163.292969 L 183.5625 119.964844 L 57.121094 85.390625 C 56.332031 85.171875 55.785156 84.453125 55.785156 83.640625 L 55.785156 83.632812 C 55.785156 82.820312 56.332031 82.101562 57.125 81.882812 L 183.5625 47.421875 L 183.5625 4.457031 L 92.175781 34.953125 C 91.222656 35.269531 90.195312 34.753906 89.875 33.800781 C 89.558594 32.847656 90.074219 31.820312 91.027344 31.503906 L 184.804688 0.210938 C 185.359375 0.0273438 185.964844 0.121094 186.441406 0.460938 C 186.914062 0.804688 187.195312 1.351562 187.195312 1.9375 L 187.195312 48.8125 C 187.195312 49.632812 186.644531 50.347656 185.855469 50.5625 L 64.5 83.640625 L 185.855469 116.832031 C 186.648438 117.050781 187.195312 117.761719 187.195312 118.582031 L 187.195312 165.820312 C 187.195312 166.40625 186.914062 166.957031 186.441406 167.296875 C 185.964844 167.636719 185.355469 167.730469 184.800781 167.542969 L 9.285156 108.496094 C 8.546875 108.246094 8.050781 107.554688 8.050781 106.773438"/></g><g clip-path="url(#c)"><path fill="#161514" d="M 327.082031 192.691406 L 199.300781 157.746094 L 199.300781 110.507812 L 374.816406 169.554688 L 374.816406 215.828125 L 199.300781 274.390625 L 199.300781 227.519531 L 327.082031 192.691406"/></g><g clip-path="url(#d)"><path fill="#6E6B6D" d="M 309.378906 244.722656 C 309.378906 245.484375 308.898438 246.191406 308.132812 246.449219 L 305.71875 247.253906 C 304.769531 247.570312 303.738281 247.058594 303.421875 246.109375 C 303.105469 245.152344 303.617188 244.128906 304.566406 243.804688 L 306.988281 243 C 307.9375 242.683594 308.96875 243.199219 309.285156 244.152344 C 309.347656 244.34375 309.378906 244.53125 309.378906 244.722656 Z M 366.941406 179.246094 L 366.941406 225.519531 C 366.941406 226.300781 366.441406 226.992188 365.699219 227.242188 L 325.488281 240.660156 C 324.535156 240.976562 323.503906 240.464844 323.1875 239.507812 C 322.867188 238.554688 323.382812 237.527344 324.335938 237.210938 L 363.304688 224.207031 L 363.304688 180.550781 L 191.425781 122.722656 L 191.425781 166.050781 L 317.867188 200.628906 C 318.65625 200.847656 319.207031 201.5625 319.207031 202.378906 L 319.207031 202.382812 C 319.207031 203.199219 318.65625 203.917969 317.863281 204.136719 L 191.425781 238.59375 L 191.425781 281.558594 L 282.816406 251.066406 C 283.765625 250.75 284.796875 251.261719 285.113281 252.21875 C 285.429688 253.167969 284.917969 254.199219 283.960938 254.515625 L 190.1875 285.804688 C 189.632812 285.992188 189.027344 285.898438 188.550781 285.558594 C 188.074219 285.214844 187.796875 284.667969 187.796875 284.082031 L 187.796875 237.207031 C 187.796875 236.386719 188.34375 235.667969 189.132812 235.453125 L 310.488281 202.378906 L 189.132812 169.1875 C 188.339844 168.96875 187.796875 168.257812 187.796875 167.4375 L 187.796875 120.199219 C 187.796875 119.609375 188.074219 119.0625 188.550781 118.71875 C 189.027344 118.378906 189.636719 118.285156 190.191406 118.472656 L 365.707031 177.519531 C 366.441406 177.773438 366.941406 178.460938 366.941406 179.246094"/></g></svg>